<?xml version="1.0"?>
<svg xmlns="http://www.w3.org/2000/svg" xmlns:xlink="http://www.w3.org/1999/xlink" xmlns:svgjs="http://svgjs.com/svgjs" version="1.1" width="512" height="512" x="0" y="0" viewBox="0 0 128 128" style="enable-background:new 0 0 512 512" xml:space="preserve" class=""><g><path xmlns="http://www.w3.org/2000/svg" d="m109.5 16.917h-23.85v-10.417a1.75 1.75 0 0 0 -1.75-1.75h-39.8a1.751 1.751 0 0 0 -1.75 1.75v10.417h-23.85a1.75 1.75 0 0 0 -1.75 1.75v12.641a1.751 1.751 0 0 0 1.75 1.75h4.222l4.78 88.536a1.751 1.751 0 0 0 1.748 1.656h69.5a1.749 1.749 0 0 0 1.747-1.656l4.781-88.536h4.222a1.75 1.75 0 0 0 1.75-1.75v-12.641a1.749 1.749 0 0 0 -1.75-1.75zm-63.65-8.667h36.3v8.667h-36.3zm51.242 111.5h-66.184l-4.681-86.692h75.547zm10.658-90.192h-87.5v-9.141h23.816.034s.022 0 .034 0h39.733.033s.023 0 .034 0h23.816z" fill="#dd0404" data-original="#000000" style="" class=""/><path xmlns="http://www.w3.org/2000/svg" d="m46.667 96.559a1.751 1.751 0 0 0 1.75-1.75v-42.142a1.75 1.75 0 0 0 -3.5 0v42.142a1.75 1.75 0 0 0 1.75 1.75z" fill="#dd0404" data-original="#000000" style="" class=""/><path xmlns="http://www.w3.org/2000/svg" d="m64 96.559a1.751 1.751 0 0 0 1.75-1.75v-42.142a1.75 1.75 0 0 0 -3.5 0v42.142a1.751 1.751 0 0 0 1.75 1.75z" fill="#dd0404" data-original="#000000" style="" class=""/><path xmlns="http://www.w3.org/2000/svg" d="m81.333 96.559a1.75 1.75 0 0 0 1.75-1.75v-42.142a1.75 1.75 0 0 0 -3.5 0v42.142a1.75 1.75 0 0 0 1.75 1.75z" fill="#dd0404" data-original="#000000" style="" class=""/></g></svg>
